<?xml version="1.0" encoding="UTF-8"?>
<svg width="20px" height="19px" viewBox="0 0 20 19" version="1.1" xmlns="http://www.w3.org/2000/svg" xmlns:xlink="http://www.w3.org/1999/xlink">
    <title>building_back</title>
    <g id="building_back" stroke="none" stroke-width="1" fill="none" fill-rule="evenodd">
        <path d="M9,7 L11,7 L11,5 L9,5 L9,7 Z M9,11 L11,11 L11,9 L9,9 L9,11 Z M11,17 L11,13 L9,13 L9,17 L6,17 L6,4 L9,4 L11,4 L14,4 L14,17 L11,17 Z M18,17 L16,17 L16,2 L14,2 L11,2 L11,-3.20160565e-14 L9,-3.20160565e-14 L9,2 L6,2 L4,2 L4,17 L2,17 L0,17 L0,19 L4,19 L6,19 L14,19 L16,19 L20,19 L20,17 L18,17 Z" id="building-[#808]" fill="#000000"></path>
    </g>
</svg>