<?xml version="1.0" encoding="UTF-8"?>
<svg width="20px" height="20px" viewBox="0 0 20 20" version="1.1" xmlns="http://www.w3.org/2000/svg" xmlns:xlink="http://www.w3.org/1999/xlink">
    <title>function</title>
    <g id="function" stroke="none" stroke-width="1" fill="none" fill-rule="evenodd">
        <path d="M16.4077063,11.7761862 C14.9845491,13.6010821 13.4965214,15.0617971 11.7739621,16.403779 C13.2011114,17.2279255 16.5494232,18.7215664 17.6342563,17.6370055 C18.3747771,16.8966705 18.0344569,14.5808786 16.4077063,11.7761862 M10.0015026,15.2513707 C11.9835435,13.8016311 13.7979193,11.9877105 15.2470248,10.0061669 C13.8039074,8.0316076 11.9905295,6.2156915 10.0015026,4.76096311 C8.00548958,6.21968252 6.19510579,8.03759413 4.7549824,10.0061669 C6.20408785,11.9887083 8.01946167,13.8016311 10.0015026,15.2513707 M8.22804503,16.403779 C6.50149378,15.057806 5.01346609,13.5970911 3.59430084,11.7761862 C1.96755024,14.5808786 1.62723003,16.8966705 2.36775085,17.6370055 C3.44260385,18.7105911 6.76197348,17.2518717 8.22804503,16.403779 M3.59430084,8.2361476 C5.01646011,6.4112517 6.5044878,4.95153453 8.22804503,3.60855482 C6.80289175,2.78440829 3.45358192,1.28976965 2.36775085,2.37532829 C1.62723003,3.11566331 1.96755024,5.43145521 3.59430084,8.2361476 M11.7739621,3.60855482 C13.5005134,4.95353004 14.9875431,6.41424496 16.4077063,8.2361476 C20.0184939,2.0091518 17.2879481,0.421721849 11.7739621,3.60855482 M17.6641965,10.0061669 C23.0983419,18.4970713 18.4276715,23.0647987 10.0015026,17.6739225 C1.59529382,23.0518279 -3.11429887,18.5250085 2.33880866,10.0061669 C-3.0584105,1.57413014 1.49249915,-3.10534595 10.0015026,2.33841131 C18.4246775,-3.05046937 23.103332,1.50827824 17.6641965,10.0061669 M11.0653775,8.94555218 C11.6492113,9.53023725 11.6492113,10.4781055 11.0653775,11.0617929 C10.4805457,11.6464779 9.53243953,11.6464779 8.94760772,11.0617929 C8.36277591,10.4781055 8.36277591,9.53023725 8.94760772,8.94555218 C9.53243953,8.36086711 10.4805457,8.36086711 11.0653775,8.94555218" id="atom-[#1298]" fill="#707070"></path>
    </g>
</svg>