<?xml version="1.0" encoding="UTF-8"?>
<svg width="117px" height="45px" viewBox="0 0 117 45" version="1.1" xmlns="http://www.w3.org/2000/svg" xmlns:xlink="http://www.w3.org/1999/xlink">
    <title>geodis_logo</title>
    <g id="geodis_logo" stroke="none" stroke-width="1" fill="none" fill-rule="evenodd">
        <g id="Group-22" fill="#3200E6" fill-rule="nonzero">
            <path d="M24.9394697,0.150383496 C24.9003172,0.305845228 24.8456688,0.45697036 24.7763483,0.601480256 C24.4435807,1.1833297 24.1238627,1.85016839 23.7649957,2.39279203 C23.6057256,2.70793542 23.41789,3.00774788 23.2038581,3.28844792 C23.1516592,3.53687802 22.3947759,4.85094249 22.2251297,5.43279194 C21.914306,6.13177374 21.5199288,6.79035632 21.0506556,7.3940822 C20.7133964,7.87466225 20.2658495,8.26703272 19.7456845,8.53816819 C19.4455411,8.85197463 19.0931989,9.1527058 18.7669561,9.46651224 C18.682133,9.59726493 18.8517792,9.68225417 18.8974532,9.74763051 C19.3004581,10.0395972 19.6702417,10.3750273 20.0001538,10.7478885 C20.3051957,11.0014582 20.5829261,11.2863059 20.8288105,11.597781 C21.2011665,11.9676328 21.5396418,12.3702226 21.8401632,12.8007057 C22.1330274,13.205917 22.4031397,13.6271571 22.6492453,14.0624691 C22.8714778,14.3981135 23.0761979,14.7450735 23.2625818,15.1019529 C23.660598,15.1673293 23.9150673,14.7358454 24.0716639,14.5070282 C24.5610949,14.1449158 25.0214217,13.7448931 25.4484085,13.3106412 C27.3079924,11.5847057 28.9457312,9.96991008 30.8053151,8.34203916 C31.0321094,8.06767566 31.3145859,7.84481763 31.6339718,7.68827574 C31.7496201,7.769787 31.8273182,7.89481924 31.849292,8.03477035 C31.7840434,8.45317894 31.7187949,8.8650499 31.6339718,9.24423268 C31.2359556,10.4406197 30.7726908,11.5062541 30.3290006,12.6634154 C30.2311278,12.9772218 30.0484318,13.2256519 29.9309844,13.5263831 C29.7902048,13.7123391 29.6678302,13.9115873 29.5655925,14.1213078 C29.3698468,14.3174368 29.317648,14.6704691 29.1675763,14.8992863 C28.9000572,15.0169637 28.8870075,15.298082 28.7369358,15.5530497 C28.5735997,15.842162 28.3904651,16.1195863 28.1888479,16.3833292 C27.8104063,16.762512 26.8838767,17.4947271 26.8838767,17.4947271 C26.2020479,17.9257309 25.4729963,18.276712 24.7110997,18.5407485 C24.4485042,18.6752843 24.1701161,18.7763153 23.8824431,18.8414797 C23.2691066,18.8414797 22.707969,18.906856 22.0620083,18.9591571 C21.8793123,19.0114582 21.4812961,18.9591571 21.4095227,19.1552861 C21.2444621,19.8207918 21.1331796,20.4985397 21.0767551,21.1819527 C21.0767551,21.463071 21.0115065,21.6788129 21.0441308,21.9795441 C20.9462579,22.5287054 20.9136337,23.1236301 20.8614348,23.7054795 C20.8614348,23.8362322 20.6787389,26.2813074 20.5156175,27.307716 C20.4634186,27.4711569 20.5156175,27.7065117 20.4177446,27.8699525 C20.3851203,28.5825547 20.3329215,29.3147697 20.3198718,29.9619955 C20.3068221,30.6092213 20.1045515,31.1256944 20.0523527,31.6552427 C19.8157155,32.1368322 19.6802484,32.6619612 19.6543365,33.1981244 C19.5564637,33.34849 19.4585908,33.5642319 19.2563203,33.5969201 C19.1782661,33.6316412 19.0937763,33.6494634 19.0083758,33.6492212 C18.8778786,33.5969201 18.8583041,33.5184685 18.7930555,33.4007911 C18.5973098,32.5901244 18.3102162,31.8056083 18.0622717,31.060318 C17.9774485,30.792275 17.9317746,30.4784686 17.8273769,30.1777374 C17.5462192,29.4863256 17.4000313,28.7472968 17.3967364,28.0007052 C17.2197853,26.7969828 17.1260392,25.58245 17.1161676,24.3657806 C17.1487919,23.6531785 17.0835433,22.9340387 17.1161676,22.2214366 C17.1487919,21.5088345 17.3314878,20.6785549 17.3967364,19.8940388 C17.4619849,19.1095227 17.729504,18.0831141 17.5598578,17.2789851 C17.5076589,16.9455658 17.4293607,16.9782539 17.3967364,16.7821249 C17.3641121,16.5859959 17.050919,16.4029421 16.9008473,16.1283615 C15.7867216,15.249124 14.7398218,14.2875865 13.7689165,13.2518024 C13.6388727,13.1869783 13.5125301,13.1149529 13.3904749,13.0360605 C12.8945859,13.3041035 12.4313211,13.6898239 11.9289072,13.9644046 C10.8289269,14.6056597 9.78164185,15.3336366 8.79697641,16.1414368 C8.20321453,16.4748561 7.66817636,17.0567056 6.97654164,17.1874582 C6.74164683,17.3378238 6.4806526,17.4555012 6.24575779,17.5862539 C5.10257393,17.5241012 3.95686749,17.5241012 2.81368363,17.5862539 C2.59676463,17.608687 2.37811705,17.608687 2.16119805,17.5862539 C2.01860564,17.5171007 1.89023568,17.4217435 1.78275641,17.3051357 C1.82410086,17.119448 1.93657121,16.9574552 2.09594949,16.8540389 C2.88371493,16.6962194 3.64138086,16.413745 4.34049989,16.0172217 C4.88705145,15.8116995 5.38805182,15.5007375 5.81511731,15.1019529 C5.95251431,14.9427389 6.11575518,14.8079119 6.29795664,14.7031572 C6.4806526,14.2847487 6.95044222,14.0493938 7.21143645,13.6571358 C7.57682838,13.0425982 8.12491626,12.6634154 8.51640761,12.061953 C9.11414108,11.3655792 9.76890459,10.7204675 10.4738644,10.1333509 C11.0218993,9.91290386 11.5900724,9.74649723 12.1703269,9.63649073 C13.116431,9.30307139 14.0951593,9.07425419 15.0216889,8.64277033 C15.4719039,8.24397465 15.8177213,7.72750154 16.2157375,7.29601769 C17.2597144,6.16500697 18.5842601,5.48509301 19.7978833,4.35408229 C20.3590209,3.77223285 20.9266834,3.00732964 21.4551967,2.39279203 C21.8858372,1.73902861 22.662295,0.784534014 23.2756315,8.9449248e-06 L22.4795991,8.9449248e-06 C13.0727269,-0.00836115516 4.65736027,5.85811906 1.39496119,14.6984401 C-1.86743789,23.5387611 0.714473992,33.4795475 7.86392203,39.6050059 C7.99441915,39.4415651 8.09881684,39.2911995 8.14449083,39.2388984 C7.49200525,37.2318447 6.05653697,35.6497372 5.95866413,33.5773072 C5.79111091,32.0820807 5.73005779,30.5767956 5.77596817,29.0728772 C5.86436006,27.6392187 6.14979647,26.2246414 6.62419943,24.8691784 C7.76695177,22.9059014 9.05142173,21.0289565 10.4673395,19.2533507 L10.5521626,19.1879743 C10.8156499,19.2179016 11.0671685,19.3146559 11.2829465,19.4690926 C11.3808193,19.5671571 11.2829465,19.7502109 11.3808193,19.8482754 C11.3808193,19.8482754 11.2959962,20.3320603 11.2503222,20.5020388 C11.2046482,20.6720173 11.035002,21.1165764 10.9828031,21.4499957 C10.7010205,21.8220335 10.4807185,22.2370124 10.3303175,22.679071 L10.265069,22.8948129 C9.88662733,24.0912 9.23414175,25.235286 8.96009781,26.4512859 C8.85719239,27.1545574 8.82876008,27.866757 8.87527468,28.576017 C8.84983308,29.0747309 8.84983308,29.5744214 8.87527468,30.0731353 C8.95497613,30.7821616 9.09912129,31.482416 9.30591517,32.1651782 C9.48861113,32.544361 9.55385969,32.8189416 9.73655565,33.2635008 C9.9426426,34.0012811 10.1865611,34.7279233 10.4673395,35.440533 C10.5195383,35.5712856 10.5847869,36.172748 10.9828031,36.2904254 C11.3627085,36.3233953 11.7447475,36.3233953 12.1246529,36.2904254 C12.4553291,36.406142 12.8090787,36.4397916 13.1555801,36.3884899 C14.8369348,36.5357916 16.5259763,36.5750978 18.2123434,36.5061673 C19.0214255,36.3754146 19.7717839,36.2381243 20.6004406,36.1269845 C21.213777,36.1792856 21.9054117,36.1269845 22.5578973,36.1269845 C22.9460437,36.0620921 23.3388589,36.0292934 23.7323714,36.02892 C24.2282604,36.0942964 24.8611714,35.8785544 25.3244362,36.02892 C26.1101332,36.1275121 26.9011257,36.1777282 27.6929589,36.1792856 C27.7908317,36.1792856 27.777782,36.3100383 27.777782,36.3754146 C27.5298375,36.4930921 27.777782,36.7545974 27.595086,36.9245759 C26.4532362,37.4868125 25.2918119,37.9182963 24.1956361,38.4347694 L24.110813,38.5197587 C23.3147806,39.049307 22.303428,39.0689199 21.5595944,39.6180812 C21.3511979,39.6951626 21.1266124,39.7176651 20.9071088,39.6834576 C20.5071409,39.7600853 20.1173946,39.8829422 19.7456845,40.0495651 C17.957874,40.3960597 16.1635386,40.7817801 14.3757281,41.0955865 C14.3235293,41.1282747 13.9124634,41.3767048 13.8472148,41.5793715 C13.749342,41.6316725 13.7819663,41.7951134 13.6840934,41.8604897 C13.5426948,42.265943 13.4720635,42.6927723 13.475298,43.1222531 C21.5333409,46.6445824 30.9016515,45.1320888 37.4476183,39.2519737 C37.3322055,38.371531 37.1666389,37.4984213 36.9517293,36.63692 C36.1426471,35.3293932 35.6467581,34.0218663 34.8637754,32.7143395 C34.6810794,32.0605761 34.2700135,31.5179524 34.0873176,30.8511137 C33.8915719,30.6353718 33.839373,30.1973503 33.6240528,29.988146 C32.9715672,29.9358449 32.3190816,30.1515869 31.666596,30.1515869 C31.3880406,30.302347 31.0922619,30.418695 30.7857405,30.4980815 C30.4855971,30.4327051 30.1332549,30.5830707 29.859211,30.4980815 C29.2784988,30.5830707 27.7712571,30.7334363 27.5885612,30.7791998 C26.9752247,30.864189 26.28359,30.9295653 25.6833033,31.060318 C25.4027345,31.060318 25.2657125,31.1453073 24.9394697,31.1583825 C24.5960332,31.142647 24.2539055,31.1055288 23.9150673,31.0472428 C23.4701918,31.1252615 23.0215338,31.179817 22.570947,31.2106836 C22.4534996,31.1126191 22.257754,30.9949417 22.257754,30.8315008 C22.257754,30.66806 22.1272568,30.5634578 22.257754,30.4850062 C22.6883944,30.400017 23.0342118,30.1058234 23.4648523,30.0208342 C23.5822997,29.9031568 24.1173379,29.9227697 24.0781887,29.8377804 C25.0242928,29.4389847 26.0813195,29.3213073 26.9295507,28.7721461 C27.2101195,28.7394579 27.4450143,28.5564041 27.7386328,28.523716 C28.9653057,28.0726192 30.0941058,27.5103827 31.3338284,27.0592859 C33.0237661,26.6604902 34.4200852,25.8105978 36.0251997,25.2679741 C36.3379109,25.2454212 36.6320661,25.1108195 36.8538564,24.8887913 C37.1843665,24.4555783 37.4686624,23.988858 37.7020877,23.4962753 C38.2632253,22.8425118 38.4459212,21.9664688 39.1767051,21.3846194 C39.3920253,21.070813 39.4898982,20.730856 39.7378427,20.4235872 C39.718694,19.9635577 39.5888608,19.5149802 39.3594011,19.1160603 C38.9451372,18.5295434 38.5743993,17.9133503 38.2501756,17.2724475 C37.5788271,16.2619854 37.1582513,15.1053786 37.0235027,13.8990282 C36.7559836,13.4479315 36.2600945,13.3041035 35.9142772,12.9183831 L35.8620783,12.9183831 C35.627407,12.7519647 35.4089423,12.5637171 35.2095928,12.3561466 C34.8114416,12.0278938 34.4640271,11.6423457 34.1786655,11.2120606 C33.8725972,10.933918 33.6875391,10.5466471 33.6632019,10.1333509 C34.2569638,10.0156735 34.8246263,10.1333509 35.3857639,10.0483617 C35.6206587,10.1464262 35.9012275,9.99606061 36.1295974,10.113738 C36.4300688,10.4565598 36.6665532,10.8507341 36.827757,11.2774369 C38.4328715,13.6048347 40.3772786,15.4615228 42.0019677,17.6712432 C42.3151607,17.8542969 42.1650891,18.3250066 42.302111,18.5668991 C42.4326081,19.1487485 42.484807,19.7632861 42.5696301,20.3255227 C42.8371492,21.4892216 42.3216856,22.5875441 42.4065087,23.7643183 C42.4065087,23.7643183 42.1389896,26.4382106 41.9758682,27.6542106 C41.7279237,28.6348557 41.7801226,29.7004901 41.4799792,30.6942105 C41.3494821,31.3087481 41.1145873,32.0017374 40.9840901,32.6228126 C41.036289,32.9039309 40.7491953,33.0869846 40.8340185,33.4334793 C41.1571501,33.6388085 41.5031435,33.8055617 41.8649457,33.9303395 C45.7591842,27.3520909 46.0430466,19.2399506 42.6181811,12.4045857 C39.1933157,5.56922074 32.5309619,0.951133596 24.9394697,0.150383496 L24.9394697,0.150383496 Z M14.0625351,4.17102853 C14.3431039,4.00758768 14.5910484,4.30178122 14.8585675,4.35408229 C15.0839532,4.72831145 15.2470326,5.13680822 15.3414068,5.56354462 C15.6089259,5.96234031 15.2761582,6.36113599 15.2761582,6.81223275 C15.1456611,7.11296393 14.9433906,7.40715747 14.7933189,7.67520047 C14.4931755,7.82556606 14.2321813,8.12629723 13.8798391,7.9105553 C13.7819663,7.94324347 13.5340217,7.82556606 13.4818229,7.82556606 C13.1686298,7.59021122 12.5552934,7.70788864 12.5226691,7.17180264 C12.4574205,6.40689943 12.02678,5.81197472 11.9615315,5.04707152 C12.392172,4.30178122 13.4361489,4.53713605 14.0625351,4.17102853 Z M15.0934623,31.7598449 C14.8102158,32.2611175 14.5658995,32.783492 14.3626784,33.3223395 C14.3626784,33.4727051 14.2126067,33.4530922 14.1147339,33.5184685 C14.025636,33.6493335 13.8745569,33.7237803 13.7167177,33.7145975 C13.4361489,33.5642319 13.1882044,33.812662 12.9402599,33.5838448 C12.6310932,33.243214 12.4192239,32.8254206 12.3269234,32.3743825 C12.1116032,31.6748556 12.3791223,31.0145546 12.4443708,30.328103 C12.5705439,29.9069154 12.7434448,29.5012279 12.9598344,29.1186407 C13.0446575,28.9225116 13.0903315,28.7002321 13.3252263,28.6217805 C13.4230992,28.5367912 13.5405466,28.5564041 13.6253697,28.5041031 C13.9385628,28.5041031 14.2778553,28.2687482 14.5845235,28.6217805 C14.6367224,28.8179095 14.7998438,28.9028987 14.8977166,29.1055654 C15.0747517,29.7051359 15.2185186,30.3140678 15.3283571,30.9295653 C15.2565837,31.1649202 15.1391363,31.4329632 15.0934623,31.7598449 Z M34.1068921,17.7431572 L34.1917152,17.8085335 C34.609306,18.0046625 35.0203719,18.0242754 35.4379627,18.2073292 C35.9312606,18.3666002 36.3342394,18.7276162 36.5471882,19.2010496 C36.6320113,19.6194582 36.645061,20.0967055 36.6972599,20.5085764 C36.6972599,21.1623398 37.2127235,22.2868129 36.2144205,22.5875441 C35.705299,22.5421266 35.2126863,22.3835565 34.7724274,22.1233721 C34.5259457,22.035557 34.3027642,21.8924411 34.1199418,21.7049635 C33.389158,21.338856 33.5392297,20.4432001 33.2260366,19.8286625 C33.1934123,19.3971786 33.0955395,18.9330066 33.0302909,18.4819098 C33.0158412,18.2897214 33.0614495,18.0977915 33.160788,17.9327485 C33.4129,17.691304 33.7814916,17.6174413 34.1068921,17.7431572 Z" id="Shape"></path>
            <path d="M59.0956109,23.9929541 L61.3222035,23.9929541 L61.3222035,26.3901724 C60.5721391,26.7589904 59.7461371,26.938417 58.9138483,26.9133223 C56.8041032,26.9133223 55.3370189,25.2842733 55.3370189,22.9400322 C55.2774851,21.9380399 55.6289706,20.9558985 56.3073351,20.2287176 C56.9856996,19.5015367 57.9298779,19.0947758 58.9138483,19.1058072 C59.924201,19.0864682 60.903807,19.4606206 61.6532712,20.1521069 L61.750644,20.2514392 L63.399491,18.5495466 L63.2826436,18.4435922 C62.0485784,17.4202198 60.4814927,16.9094183 58.8943737,17.0132077 C57.3086296,16.9405177 55.7662449,17.5527312 54.6456777,18.6996281 C53.5251105,19.8465251 52.9300698,21.4219597 53.006562,23.0393644 C53.006562,26.5358597 55.4279002,28.9992996 58.8943737,28.9992996 C60.4760699,29.0186604 62.0376452,28.6363408 63.4384401,27.8867784 L63.5228299,27.8338012 L63.5228299,21.9069767 L59.0956109,21.9069767 L59.0956109,23.9929541 Z M69.0081672,23.9068661 L74.0066403,23.9068661 L74.0066403,21.8208888 L69.0081672,21.8208888 L69.0081672,19.3971818 L74.2663012,19.3971818 L74.2663012,17.3112045 L66.7750832,17.3112045 L66.7750832,28.7013029 L74.5649113,28.7013029 L74.5649113,26.5954591 L69.0211503,26.5954591 L69.0211503,23.9068661 L69.0081672,23.9068661 Z M82.8286206,17.0065856 L82.6987902,17.0065856 C81.113046,16.9338955 79.5706614,17.546109 78.4500942,18.693006 C77.329527,19.839903 76.7344863,21.4153376 76.8109784,23.0327423 C76.8109784,26.5292376 79.2323166,28.9926775 82.6987902,28.9926775 L82.6987902,28.9926775 C86.243162,28.926456 88.6385341,26.5226154 88.6385341,23.0327423 C88.6385341,19.5428691 86.2950941,17.0065856 82.8286206,17.0065856 Z M82.7117732,26.8802116 C80.6020281,26.8802116 79.1349438,25.2511626 79.1349438,22.9069214 C79.0788691,21.5626494 79.749936,20.2952712 80.8827152,19.606077 C82.0154945,18.9168828 83.4275265,18.9168828 84.5603057,19.606077 C85.693085,20.2952712 86.3641519,21.5626494 86.3080772,22.9069214 C86.3080772,25.2511626 84.8215183,26.8868337 82.7117732,26.8868337 L82.7117732,26.8802116 Z M95.8376336,17.291338 L91.4039231,17.291338 L91.4039231,28.6814364 L95.6104303,28.6814364 C98.4796836,28.6814364 101.517717,26.6947913 101.517717,22.9797651 C101.517717,19.0594521 98.6614463,17.291338 95.8441251,17.291338 L95.8376336,17.291338 Z M94.9288203,26.5954591 L93.6305156,26.5954591 L93.6305156,19.3839375 L95.246905,19.3839375 C97.045057,19.3839375 99.1872597,20.0064196 99.1872597,22.9863872 C99.1872597,26.2444851 96.2076504,26.5954591 94.9353118,26.5954591 L94.9288203,26.5954591 Z M104.231173,28.7013029 L106.457766,28.7013029 L106.457766,17.3112045 L104.231173,17.3112045 L104.231173,28.7013029 Z M113.799679,21.8539995 C112.728578,21.5030256 111.852222,21.1917845 111.852222,20.3706379 C111.852222,19.4302925 112.69612,19.0925629 113.488086,19.0925629 C114.173429,19.0566614 114.834357,19.3568651 115.266763,19.9004652 L115.364136,20.0527747 L117,18.2846606 L116.883153,18.1853283 C115.989548,17.3821639 114.827488,16.9601462 113.637391,17.0065856 C111.573086,17.0065856 109.482816,18.085996 109.482816,20.5030809 C109.482816,22.9201657 111.229036,23.416827 112.631205,23.8869996 C113.702306,24.2379736 114.643577,24.5492147 114.643577,25.5028043 C114.643577,26.4563939 113.734764,26.8669673 112.897357,26.8669673 C112.100868,26.8591604 111.359682,26.450122 110.917443,25.7743125 L110.82007,25.622003 L109.138765,27.2907849 L109.223155,27.3901171 C110.149889,28.4360984 111.483885,29.0085724 112.8649,28.9529446 C115.370628,28.9529446 116.987017,27.5026937 116.987017,25.271029 C117.032458,22.9135436 115.25378,22.3241722 113.799679,21.8539995 L113.799679,21.8539995 Z" id="Shape"></path>
        </g>
    </g>
</svg>