<?xml version="1.0" encoding="UTF-8"?>
<svg width="20px" height="19px" viewBox="0 0 20 19" version="1.1" xmlns="http://www.w3.org/2000/svg" xmlns:xlink="http://www.w3.org/1999/xlink">
    <title>radar</title>
    <g id="radar" stroke="none" stroke-width="1" fill="none" fill-rule="evenodd">
        <g id="Icon-24px" transform="translate(-1.000000, -1.500000)">
            <polygon id="Shape" points="0 0 22 0 22 22 0 22"></polygon>
            <path d="M17.4808333,4.51916667 L16.1883333,5.81166667 C17.5083333,7.14083333 18.3333333,8.97416667 18.3333333,11 C18.3333333,15.0516667 15.0516667,18.3333333 11,18.3333333 C6.94833333,18.3333333 3.66666667,15.0516667 3.66666667,11 C3.66666667,7.26 6.4625,4.18 10.0833333,3.73083333 L10.0833333,5.5825 C7.48,6.0225 5.5,8.2775 5.5,11 C5.5,14.0341667 7.96583333,16.5 11,16.5 C14.0341667,16.5 16.5,14.0341667 16.5,11 C16.5,9.47833333 15.8858333,8.10333333 14.8866667,7.11333333 L13.5941667,8.40583333 C14.2541667,9.075 14.6666667,9.99166667 14.6666667,11 C14.6666667,13.0258333 13.0258333,14.6666667 11,14.6666667 C8.97416667,14.6666667 7.33333333,13.0258333 7.33333333,11 C7.33333333,9.295 8.50666667,7.87416667 10.0833333,7.46166667 L10.0833333,9.42333333 C9.53333333,9.74416667 9.16666667,10.3216667 9.16666667,11 C9.16666667,12.0083333 9.99166667,12.8333333 11,12.8333333 C12.0083333,12.8333333 12.8333333,12.0083333 12.8333333,11 C12.8333333,10.3216667 12.4666667,9.735 11.9166667,9.42333333 L11.9166667,1.83333333 L11,1.83333333 C5.94,1.83333333 1.83333333,5.94 1.83333333,11 C1.83333333,16.06 5.94,20.1666667 11,20.1666667 C16.06,20.1666667 20.1666667,16.06 20.1666667,11 C20.1666667,8.47 19.14,6.17833333 17.4808333,4.51916667 L17.4808333,4.51916667 Z" id="Shape" fill="#FFFFFF"></path>
        </g>
    </g>
</svg>