<?xml version="1.0" encoding="UTF-8"?>
<svg width="20px" height="20px" viewBox="0 0 20 20" version="1.1" xmlns="http://www.w3.org/2000/svg" xmlns:xlink="http://www.w3.org/1999/xlink">
    <title>trash</title>
    <g id="trash" stroke="none" stroke-width="1" fill="none" fill-rule="evenodd">
        <path d="M7,16 L9,16 L9,8 L7,8 L7,16 Z M11,16 L13,16 L13,8 L11,8 L11,16 Z M5,18 L15,18 L15,6 L5,6 L5,18 Z M7,4 L13,4 L13,2 L7,2 L7,4 Z M15,4 L15,0 L5,0 L5,4 L-5.32907052e-15,4 L-5.32907052e-15,6 L3,6 L3,20 L17,20 L17,6 L20,6 L20,4 L15,4 Z" id="delete-[#1487]" fill="#0066CC"></path>
    </g>
</svg>